<mxfile host="app.diagrams.net" agent="Mozilla/5.0 (X11; Linux x86_64) AppleWebKit/537.36 (KHTML, like Gecko) Chrome/139.0.0.0 Safari/537.36" version="28.1.0" pages="3">
  <diagram name="lt3" id="yY23YT42wjt0J4VmDzSI">
    <mxGraphModel dx="658" dy="552" grid="1" gridSize="10" guides="1" tooltips="1" connect="1" arrows="1" fold="1" page="1" pageScale="1" pageWidth="1169" pageHeight="827" math="0" shadow="0">
      <root>
        <mxCell id="0" />
        <mxCell id="1" parent="0" />
        <mxCell id="dqrhQqawZ4_geBMDoGWQ-1" value="317" style="rounded=0;whiteSpace=wrap;html=1;" vertex="1" parent="1">
          <mxGeometry x="40" y="40" width="60" height="100" as="geometry" />
        </mxCell>
        <mxCell id="dqrhQqawZ4_geBMDoGWQ-2" value="315" style="rounded=0;whiteSpace=wrap;html=1;shadow=0;" vertex="1" parent="1">
          <mxGeometry x="40" y="220" width="120" height="60" as="geometry" />
        </mxCell>
        <mxCell id="dqrhQqawZ4_geBMDoGWQ-5" value="318" style="rounded=0;whiteSpace=wrap;html=1;" vertex="1" parent="1">
          <mxGeometry x="100" y="40" width="60" height="100" as="geometry" />
        </mxCell>
        <mxCell id="dqrhQqawZ4_geBMDoGWQ-6" value="316" style="rounded=0;whiteSpace=wrap;html=1;" vertex="1" parent="1">
          <mxGeometry x="40" y="160" width="120" height="60" as="geometry" />
        </mxCell>
        <mxCell id="dqrhQqawZ4_geBMDoGWQ-7" value="emergency" style="rounded=0;whiteSpace=wrap;html=1;shadow=0;" vertex="1" parent="1">
          <mxGeometry x="40" y="280" width="120" height="40" as="geometry" />
        </mxCell>
        <mxCell id="dqrhQqawZ4_geBMDoGWQ-8" value="314" style="rounded=0;whiteSpace=wrap;html=1;" vertex="1" parent="1">
          <mxGeometry x="40" y="340" width="60" height="100" as="geometry" />
        </mxCell>
        <mxCell id="dqrhQqawZ4_geBMDoGWQ-9" value="313" style="rounded=0;whiteSpace=wrap;html=1;" vertex="1" parent="1">
          <mxGeometry x="100" y="340" width="60" height="100" as="geometry" />
        </mxCell>
        <mxCell id="dqrhQqawZ4_geBMDoGWQ-10" value="312" style="rounded=0;whiteSpace=wrap;html=1;" vertex="1" parent="1">
          <mxGeometry x="160" y="340" width="60" height="100" as="geometry" />
        </mxCell>
        <mxCell id="dqrhQqawZ4_geBMDoGWQ-11" value="311" style="rounded=0;whiteSpace=wrap;html=1;" vertex="1" parent="1">
          <mxGeometry x="220" y="340" width="60" height="100" as="geometry" />
        </mxCell>
        <mxCell id="dqrhQqawZ4_geBMDoGWQ-12" value="310" style="rounded=0;whiteSpace=wrap;html=1;" vertex="1" parent="1">
          <mxGeometry x="280" y="340" width="60" height="100" as="geometry" />
        </mxCell>
        <mxCell id="dqrhQqawZ4_geBMDoGWQ-13" value="storage" style="rounded=0;whiteSpace=wrap;html=1;" vertex="1" parent="1">
          <mxGeometry x="340" y="340" width="60" height="100" as="geometry" />
        </mxCell>
        <mxCell id="dqrhQqawZ4_geBMDoGWQ-14" value="tangga" style="rounded=0;whiteSpace=wrap;html=1;" vertex="1" parent="1">
          <mxGeometry x="400" y="340" width="60" height="100" as="geometry" />
        </mxCell>
        <mxCell id="dqrhQqawZ4_geBMDoGWQ-15" value="301" style="rounded=0;whiteSpace=wrap;html=1;" vertex="1" parent="1">
          <mxGeometry x="460" y="220" width="60" height="100" as="geometry" />
        </mxCell>
        <mxCell id="dqrhQqawZ4_geBMDoGWQ-16" value="guda&lt;div&gt;ng&lt;/div&gt;" style="rounded=0;whiteSpace=wrap;html=1;" vertex="1" parent="1">
          <mxGeometry x="520" y="220" width="40" height="100" as="geometry" />
        </mxCell>
        <mxCell id="dqrhQqawZ4_geBMDoGWQ-17" value="303" style="rounded=0;whiteSpace=wrap;html=1;" vertex="1" parent="1">
          <mxGeometry x="520" y="340" width="60" height="100" as="geometry" />
        </mxCell>
        <mxCell id="dqrhQqawZ4_geBMDoGWQ-18" value="302" style="rounded=0;whiteSpace=wrap;html=1;" vertex="1" parent="1">
          <mxGeometry x="460" y="340" width="60" height="100" as="geometry" />
        </mxCell>
        <mxCell id="dqrhQqawZ4_geBMDoGWQ-19" value="305" style="rounded=0;whiteSpace=wrap;html=1;" vertex="1" parent="1">
          <mxGeometry x="640" y="340" width="60" height="100" as="geometry" />
        </mxCell>
        <mxCell id="dqrhQqawZ4_geBMDoGWQ-20" value="304" style="rounded=0;whiteSpace=wrap;html=1;" vertex="1" parent="1">
          <mxGeometry x="580" y="340" width="60" height="100" as="geometry" />
        </mxCell>
        <mxCell id="dqrhQqawZ4_geBMDoGWQ-21" value="emergency" style="rounded=0;whiteSpace=wrap;html=1;shadow=0;" vertex="1" parent="1">
          <mxGeometry x="580" y="280" width="120" height="40" as="geometry" />
        </mxCell>
        <mxCell id="dqrhQqawZ4_geBMDoGWQ-22" value="306" style="rounded=0;whiteSpace=wrap;html=1;" vertex="1" parent="1">
          <mxGeometry x="580" y="220" width="120" height="60" as="geometry" />
        </mxCell>
        <mxCell id="dqrhQqawZ4_geBMDoGWQ-23" value="307" style="rounded=0;whiteSpace=wrap;html=1;" vertex="1" parent="1">
          <mxGeometry x="580" y="160" width="120" height="60" as="geometry" />
        </mxCell>
        <mxCell id="dqrhQqawZ4_geBMDoGWQ-24" value="308" style="rounded=0;whiteSpace=wrap;html=1;" vertex="1" parent="1">
          <mxGeometry x="580" y="40" width="60" height="100" as="geometry" />
        </mxCell>
        <mxCell id="dqrhQqawZ4_geBMDoGWQ-25" value="309" style="rounded=0;whiteSpace=wrap;html=1;" vertex="1" parent="1">
          <mxGeometry x="640" y="40" width="60" height="100" as="geometry" />
        </mxCell>
      </root>
    </mxGraphModel>
  </diagram>
  <diagram name="lt2" id="4ATnXZZK_UvOnNCUI0Nd">
    <mxGraphModel dx="658" dy="552" grid="1" gridSize="10" guides="1" tooltips="1" connect="1" arrows="1" fold="1" page="1" pageScale="1" pageWidth="1169" pageHeight="827" math="0" shadow="0">
      <root>
        <mxCell id="ei8qJJ2HNMZ0bRNmfrHe-0" />
        <mxCell id="ei8qJJ2HNMZ0bRNmfrHe-1" parent="ei8qJJ2HNMZ0bRNmfrHe-0" />
        <mxCell id="ei8qJJ2HNMZ0bRNmfrHe-6" value="emergency" style="rounded=0;whiteSpace=wrap;html=1;shadow=0;" vertex="1" parent="ei8qJJ2HNMZ0bRNmfrHe-1">
          <mxGeometry x="40" y="280" width="120" height="40" as="geometry" />
        </mxCell>
        <mxCell id="ei8qJJ2HNMZ0bRNmfrHe-7" value="210" style="rounded=0;whiteSpace=wrap;html=1;" vertex="1" parent="ei8qJJ2HNMZ0bRNmfrHe-1">
          <mxGeometry x="40" y="340" width="120" height="100" as="geometry" />
        </mxCell>
        <mxCell id="ei8qJJ2HNMZ0bRNmfrHe-10" value="211" style="rounded=0;whiteSpace=wrap;html=1;" vertex="1" parent="ei8qJJ2HNMZ0bRNmfrHe-1">
          <mxGeometry x="160" y="340" width="120" height="100" as="geometry" />
        </mxCell>
        <mxCell id="ei8qJJ2HNMZ0bRNmfrHe-11" value="212" style="rounded=0;whiteSpace=wrap;html=1;" vertex="1" parent="ei8qJJ2HNMZ0bRNmfrHe-1">
          <mxGeometry x="280" y="340" width="60" height="100" as="geometry" />
        </mxCell>
        <mxCell id="ei8qJJ2HNMZ0bRNmfrHe-12" value="213" style="rounded=0;whiteSpace=wrap;html=1;" vertex="1" parent="ei8qJJ2HNMZ0bRNmfrHe-1">
          <mxGeometry x="340" y="340" width="60" height="100" as="geometry" />
        </mxCell>
        <mxCell id="ei8qJJ2HNMZ0bRNmfrHe-13" value="tangga" style="rounded=0;whiteSpace=wrap;html=1;" vertex="1" parent="ei8qJJ2HNMZ0bRNmfrHe-1">
          <mxGeometry x="400" y="340" width="60" height="100" as="geometry" />
        </mxCell>
        <mxCell id="ei8qJJ2HNMZ0bRNmfrHe-14" value="205" style="rounded=0;whiteSpace=wrap;html=1;" vertex="1" parent="ei8qJJ2HNMZ0bRNmfrHe-1">
          <mxGeometry x="420" y="220" width="100" height="100" as="geometry" />
        </mxCell>
        <mxCell id="ei8qJJ2HNMZ0bRNmfrHe-15" value="guda&lt;div&gt;ng&lt;/div&gt;" style="rounded=0;whiteSpace=wrap;html=1;" vertex="1" parent="ei8qJJ2HNMZ0bRNmfrHe-1">
          <mxGeometry x="520" y="220" width="40" height="100" as="geometry" />
        </mxCell>
        <mxCell id="ei8qJJ2HNMZ0bRNmfrHe-16" value="303" style="rounded=0;whiteSpace=wrap;html=1;" vertex="1" parent="ei8qJJ2HNMZ0bRNmfrHe-1">
          <mxGeometry x="520" y="340" width="60" height="100" as="geometry" />
        </mxCell>
        <mxCell id="ei8qJJ2HNMZ0bRNmfrHe-17" value="201" style="rounded=0;whiteSpace=wrap;html=1;" vertex="1" parent="ei8qJJ2HNMZ0bRNmfrHe-1">
          <mxGeometry x="460" y="340" width="120" height="100" as="geometry" />
        </mxCell>
        <mxCell id="ei8qJJ2HNMZ0bRNmfrHe-18" value="305" style="rounded=0;whiteSpace=wrap;html=1;" vertex="1" parent="ei8qJJ2HNMZ0bRNmfrHe-1">
          <mxGeometry x="640" y="340" width="60" height="100" as="geometry" />
        </mxCell>
        <mxCell id="ei8qJJ2HNMZ0bRNmfrHe-19" value="202" style="rounded=0;whiteSpace=wrap;html=1;" vertex="1" parent="ei8qJJ2HNMZ0bRNmfrHe-1">
          <mxGeometry x="580" y="340" width="120" height="100" as="geometry" />
        </mxCell>
        <mxCell id="ei8qJJ2HNMZ0bRNmfrHe-20" value="emergency" style="rounded=0;whiteSpace=wrap;html=1;shadow=0;" vertex="1" parent="ei8qJJ2HNMZ0bRNmfrHe-1">
          <mxGeometry x="580" y="280" width="120" height="40" as="geometry" />
        </mxCell>
        <mxCell id="ei8qJJ2HNMZ0bRNmfrHe-21" value="203" style="rounded=0;whiteSpace=wrap;html=1;" vertex="1" parent="ei8qJJ2HNMZ0bRNmfrHe-1">
          <mxGeometry x="580" y="160" width="120" height="120" as="geometry" />
        </mxCell>
        <mxCell id="ei8qJJ2HNMZ0bRNmfrHe-22" value="204" style="rounded=0;whiteSpace=wrap;html=1;" vertex="1" parent="ei8qJJ2HNMZ0bRNmfrHe-1">
          <mxGeometry x="580" y="40" width="120" height="120" as="geometry" />
        </mxCell>
        <mxCell id="PkGmgkt3UwGPl_x2E_2j-0" value="206" style="rounded=0;whiteSpace=wrap;html=1;" vertex="1" parent="ei8qJJ2HNMZ0bRNmfrHe-1">
          <mxGeometry x="310" y="220" width="110" height="100" as="geometry" />
        </mxCell>
        <mxCell id="PkGmgkt3UwGPl_x2E_2j-1" value="207" style="rounded=0;whiteSpace=wrap;html=1;" vertex="1" parent="ei8qJJ2HNMZ0bRNmfrHe-1">
          <mxGeometry x="210" y="220" width="100" height="100" as="geometry" />
        </mxCell>
        <mxCell id="PkGmgkt3UwGPl_x2E_2j-2" value="stora&lt;div&gt;ge&lt;/div&gt;" style="rounded=0;whiteSpace=wrap;html=1;" vertex="1" parent="ei8qJJ2HNMZ0bRNmfrHe-1">
          <mxGeometry x="180" y="220" width="30" height="100" as="geometry" />
        </mxCell>
        <mxCell id="PkGmgkt3UwGPl_x2E_2j-3" value="209" style="rounded=0;whiteSpace=wrap;html=1;" vertex="1" parent="ei8qJJ2HNMZ0bRNmfrHe-1">
          <mxGeometry x="40" y="160" width="120" height="120" as="geometry" />
        </mxCell>
        <mxCell id="PkGmgkt3UwGPl_x2E_2j-4" value="208" style="rounded=0;whiteSpace=wrap;html=1;" vertex="1" parent="ei8qJJ2HNMZ0bRNmfrHe-1">
          <mxGeometry x="40" y="40" width="120" height="120" as="geometry" />
        </mxCell>
      </root>
    </mxGraphModel>
  </diagram>
  <diagram name="Salinan lt2" id="Ryh9sKyiQhLYInT_qm-5">
    <mxGraphModel dx="658" dy="552" grid="1" gridSize="10" guides="1" tooltips="1" connect="1" arrows="1" fold="1" page="1" pageScale="1" pageWidth="1169" pageHeight="827" math="0" shadow="0">
      <root>
        <mxCell id="6FYG-QUpL_KtXFAKSBGF-0" />
        <mxCell id="6FYG-QUpL_KtXFAKSBGF-1" parent="6FYG-QUpL_KtXFAKSBGF-0" />
        <mxCell id="6FYG-QUpL_KtXFAKSBGF-2" value="emergency" style="rounded=0;whiteSpace=wrap;html=1;shadow=0;" vertex="1" parent="6FYG-QUpL_KtXFAKSBGF-1">
          <mxGeometry x="40" y="280" width="120" height="40" as="geometry" />
        </mxCell>
        <mxCell id="6FYG-QUpL_KtXFAKSBGF-3" value="" style="rounded=0;whiteSpace=wrap;html=1;" vertex="1" parent="6FYG-QUpL_KtXFAKSBGF-1">
          <mxGeometry x="40" y="340" width="120" height="100" as="geometry" />
        </mxCell>
        <mxCell id="6FYG-QUpL_KtXFAKSBGF-4" value="" style="rounded=0;whiteSpace=wrap;html=1;" vertex="1" parent="6FYG-QUpL_KtXFAKSBGF-1">
          <mxGeometry x="160" y="340" width="240" height="100" as="geometry" />
        </mxCell>
        <mxCell id="6FYG-QUpL_KtXFAKSBGF-7" value="tangga" style="rounded=0;whiteSpace=wrap;html=1;" vertex="1" parent="6FYG-QUpL_KtXFAKSBGF-1">
          <mxGeometry x="400" y="340" width="60" height="100" as="geometry" />
        </mxCell>
        <mxCell id="6FYG-QUpL_KtXFAKSBGF-8" value="101" style="rounded=0;whiteSpace=wrap;html=1;" vertex="1" parent="6FYG-QUpL_KtXFAKSBGF-1">
          <mxGeometry x="420" y="220" width="100" height="100" as="geometry" />
        </mxCell>
        <mxCell id="6FYG-QUpL_KtXFAKSBGF-9" value="guda&lt;div&gt;ng&lt;/div&gt;" style="rounded=0;whiteSpace=wrap;html=1;" vertex="1" parent="6FYG-QUpL_KtXFAKSBGF-1">
          <mxGeometry x="520" y="220" width="40" height="100" as="geometry" />
        </mxCell>
        <mxCell id="6FYG-QUpL_KtXFAKSBGF-10" value="303" style="rounded=0;whiteSpace=wrap;html=1;" vertex="1" parent="6FYG-QUpL_KtXFAKSBGF-1">
          <mxGeometry x="520" y="340" width="60" height="100" as="geometry" />
        </mxCell>
        <mxCell id="6FYG-QUpL_KtXFAKSBGF-11" value="102" style="rounded=0;whiteSpace=wrap;html=1;" vertex="1" parent="6FYG-QUpL_KtXFAKSBGF-1">
          <mxGeometry x="460" y="340" width="120" height="100" as="geometry" />
        </mxCell>
        <mxCell id="6FYG-QUpL_KtXFAKSBGF-12" value="305" style="rounded=0;whiteSpace=wrap;html=1;" vertex="1" parent="6FYG-QUpL_KtXFAKSBGF-1">
          <mxGeometry x="640" y="340" width="60" height="100" as="geometry" />
        </mxCell>
        <mxCell id="6FYG-QUpL_KtXFAKSBGF-13" value="103" style="rounded=0;whiteSpace=wrap;html=1;" vertex="1" parent="6FYG-QUpL_KtXFAKSBGF-1">
          <mxGeometry x="580" y="340" width="120" height="100" as="geometry" />
        </mxCell>
        <mxCell id="6FYG-QUpL_KtXFAKSBGF-14" value="emergency" style="rounded=0;whiteSpace=wrap;html=1;shadow=0;" vertex="1" parent="6FYG-QUpL_KtXFAKSBGF-1">
          <mxGeometry x="580" y="280" width="120" height="40" as="geometry" />
        </mxCell>
        <mxCell id="6FYG-QUpL_KtXFAKSBGF-15" value="104" style="rounded=0;whiteSpace=wrap;html=1;" vertex="1" parent="6FYG-QUpL_KtXFAKSBGF-1">
          <mxGeometry x="580" y="160" width="120" height="120" as="geometry" />
        </mxCell>
        <mxCell id="6FYG-QUpL_KtXFAKSBGF-16" value="105" style="rounded=0;whiteSpace=wrap;html=1;" vertex="1" parent="6FYG-QUpL_KtXFAKSBGF-1">
          <mxGeometry x="580" y="40" width="120" height="120" as="geometry" />
        </mxCell>
        <mxCell id="6FYG-QUpL_KtXFAKSBGF-20" value="" style="rounded=0;whiteSpace=wrap;html=1;" vertex="1" parent="6FYG-QUpL_KtXFAKSBGF-1">
          <mxGeometry x="40" y="160" width="120" height="120" as="geometry" />
        </mxCell>
        <mxCell id="6FYG-QUpL_KtXFAKSBGF-21" value="" style="rounded=0;whiteSpace=wrap;html=1;" vertex="1" parent="6FYG-QUpL_KtXFAKSBGF-1">
          <mxGeometry x="40" y="40" width="120" height="120" as="geometry" />
        </mxCell>
      </root>
    </mxGraphModel>
  </diagram>
</mxfile>
